<?xml version="1.0" encoding="UTF-8"?>
<svg version="1.1" xmlns="http://www.w3.org/2000/svg" width="64" height="64">
<path d="M0 0 C3.45446332 2.18801523 5.72971861 3.99789851 7.76171875 7.57421875 C9.12443815 10.27951919 9.12443815 10.27951919 13.07421875 10.76171875 C13.77289063 10.90480469 14.4715625 11.04789063 15.19140625 11.1953125 C17.93987616 12.05621455 19.67295226 13.59388974 21.34765625 15.91796875 C23.09841674 19.83710233 23.02369652 23.66803983 22.19921875 27.82421875 C19.32383887 32.76627792 16.29752038 34.57762271 11.04296875 36.234375 C9.10102739 36.78409774 9.10102739 36.78409774 7.13671875 38.01171875 C4.18094034 39.25123873 1.35836147 38.94572424 -1.80078125 38.82421875 C-1.80078125 37.17421875 -1.80078125 35.52421875 -1.80078125 33.82421875 C1.16921875 33.16421875 4.13921875 32.50421875 7.19921875 31.82421875 C7.19921875 31.16421875 7.19921875 30.50421875 7.19921875 29.82421875 C7.76511719 29.70304687 8.33101562 29.581875 8.9140625 29.45703125 C9.64753906 29.28945313 10.38101563 29.121875 11.13671875 28.94921875 C11.86761719 28.78679688 12.59851562 28.624375 13.3515625 28.45703125 C15.40622169 27.99460352 15.40622169 27.99460352 16.19921875 25.82421875 C16.54832275 21.73236746 16.54832275 21.73236746 15.19921875 17.94921875 C11.94608191 16.11932928 8.88531766 16.6429352 5.19921875 16.82421875 C4.98007812 16.293125 4.7609375 15.76203125 4.53515625 15.21484375 C2.28849795 10.21009274 0.40895802 7.13965843 -4.80078125 4.82421875 C-9.74877585 4.05059093 -13.58259458 4.28280245 -18.17578125 6.32421875 C-21.4555936 9.44784956 -23.08938708 12.67660464 -24.80078125 16.82421875 C-26.68796875 16.73140625 -26.68796875 16.73140625 -28.61328125 16.63671875 C-31.86261771 16.65315266 -31.86261771 16.65315266 -34.80078125 17.94921875 C-36.27979791 20.72237499 -36.18680109 22.73606 -35.80078125 25.82421875 C-34.62972012 27.58930768 -34.62972012 27.58930768 -32.80078125 28.82421875 C-30.51748024 29.18568332 -30.51748024 29.18568332 -28.11328125 29.01171875 C-27.30503906 28.98464844 -26.49679688 28.95757812 -25.6640625 28.9296875 C-24.74173828 28.87748047 -24.74173828 28.87748047 -23.80078125 28.82421875 C-23.47078125 29.81421875 -23.14078125 30.80421875 -22.80078125 31.82421875 C-20.29630609 33.04291804 -20.29630609 33.04291804 -17.80078125 33.82421875 C-17.80078125 35.47421875 -17.80078125 37.12421875 -17.80078125 38.82421875 C-21.1754084 38.27698192 -22.88313125 37.76931875 -25.80078125 35.82421875 C-27.88228698 35.55369392 -27.88228698 35.55369392 -30.11328125 35.51171875 C-35.16124068 35.06703717 -37.29725664 33.41533147 -40.80078125 29.82421875 C-42.67032812 26.08512501 -42.33785898 21.89601735 -41.80078125 17.82421875 C-40.5137412 14.86522947 -39.41092108 13.99933528 -36.80078125 11.82421875 C-34.78173257 11.24211399 -32.77750463 10.8824985 -30.7109375 10.5078125 C-27.68742371 9.42577791 -26.71487329 7.19525661 -25.04296875 4.578125 C-19.6245906 -3.07235232 -8.02248077 -3.36787547 0 0 Z " fill="#77BE25" transform="translate(41.80078125,9.17578125)"/>
<path d="M0 0 C2.64 0 5.28 0 8 0 C8 6.6 8 13.2 8 20 C10.64 20 13.28 20 16 20 C12.49102731 24.18423892 8.91939465 28.19588166 5 32 C1.34435261 30.46563424 -0.98698623 28.25017578 -3.75 25.4375 C-4.54921875 24.63183594 -5.3484375 23.82617188 -6.171875 22.99609375 C-8 21 -8 21 -8 20 C-5.36 20 -2.72 20 0 20 C0 13.4 0 6.8 0 0 Z " fill="#80CC28" transform="translate(28,32)"/>
</svg>
